{"title":"The.Host.2013.CAM.Rip.XViD-FANTA","uid":8340437,"size":1286658235,"categoryP":"video","categoryS":"movies","magnet":"?xt=urn:btih:871c62468229847967fcd222ad7208ae8957d2a6&amp;dn=The.Host.2013.CAM.Rip.XViD-FANTA&amp;tr=udp%3A%2F%2Ftracker.openbittorrent.com%3A80&amp;tr=udp%3A%2F%2Fopen.demonii.com%3A1337&amp;tr=udp%3A%2F%2Ftracker.coppersurfer.tk%3A6969&amp;tr=udp%3A%2F%2Fexodus.desync.com%3A6969","seeders":2,"leechers":0,"uploader":"xxxlavalxxx","files":2,"time":1365087887,"description":" &lt;a href=&quot;\nhttp://www.imdb.com/title/tt1517260/&quot; rel=&quot;nofollow&quot; target=&quot;_NEW&quot;&gt;\nhttp://www.imdb.com/title/tt1517260/&lt;/a&gt;\n\n\nPlot: When an unseen enemy threatens mankind by taking over their bodies and erasing their memories, Melanie will risk everything to protect the people she cares most about, proving that love can conquer all in a dangerous new world. \n\n\n\nDirector:\n Andrew Niccol \n\nWriters:\n Stephenie Meyer (novel), Andrew Niccol (screenplay) \n\nStars:\n Saoirse Ronan, Max Irons, Jake Abel \n\nGenres:\n  Action |  Adventure |  Romance |  Sci-Fi |  Thriller \n\nCountry:\n USA \n\nLanguage:\n English \n\n\n\nFormat                                   : AVI\nFormat/Info                              : Audio Video Interleave\nFormat profile                           : OpenDML\nFormat settings                          : rec\nFile size                                : 1.20 GiB\nDuration                                 : 1h 51mn\nOverall bit rate                         : 1 534 Kbps\nWriting application                      : AVI-Mux GUI 1.17.8.3, Feb 16 201019:42:50\n\nVideo\nID                                       : 0\nFormat                                   : MPEG-4 Visual\nFormat profile                           : Advanced Simple@L5\nFormat settings, BVOP                    : 1\nFormat settings, QPel                    : No\nFormat settings, GMC                     : No warppoints\nFormat settings, Matrix                  : Default (H.263)\nMuxing mode                              : Packed bitstream\nCodec ID                                 : XVID\nCodec ID/Hint                            : XviD\nDuration                                 : 1h 51mn\nBit rate                                 : 1 337 Kbps\nWidth                                    : 720 pixels\nHeight                                   : 340 pixels\nDisplay aspect ratio                     : 2.118\nFrame rate                               : 25.000 fps\nColor space                              : YUV\nChroma subsampling                       : 4:2:0\nBit depth                                : 8 bits\nScan type                                : Progressive\nCompression mode                         : Lossy\nBits/(Pixel*Frame)                       : 0.218\nStream size                              : 1.04 GiB (87%)\nWriting library                          : XviD 64\n\nAudio\nID                                       : 1\nFormat                                   : AC-3\nFormat/Info                              : Audio Coding 3\nMode extension                           : CM (complete main)\nFormat settings, Endianness              : Big\nCodec ID                                 : 2000\nDuration                                 : 1h 51mn\nBit rate mode                            : Constant\nBit rate                                 : 192 Kbps\nChannel(s)                               : 2 channels\nChannel positions                        : Front: L R\nSampling rate                            : 48.0 KHz\nBit depth                                : 16 bits\nCompression mode                         : Lossy\nStream size                              : 154 MiB (13%)\nAlignment                                : Aligned on interleaves\nInterleave, duration                     : 64 ms (1.60 video frames)\nInterleave, preload duration             : 192 ms\nTitle                                    : audio-eng\n\n &lt;a href=&quot;\nhttp://www.shotpix.com/images/64123981052128694723.png&quot; rel=&quot;nofollow&quot; target=&quot;_NEW&quot;&gt;\nhttp://www.shotpix.com/images/64123981052128694723.png&lt;/a&gt;\n &lt;a href=&quot;\nhttp://www.shotpix.com/images/20245017222189850639.png&quot; rel=&quot;nofollow&quot; target=&quot;_NEW&quot;&gt;\nhttp://www.shotpix.com/images/20245017222189850639.png&lt;/a&gt;\n &lt;a href=&quot;\nhttp://www.shotpix.com/images/75291464824798278087.png&quot; rel=&quot;nofollow&quot; target=&quot;_NEW&quot;&gt;\nhttp://www.shotpix.com/images/75291464824798278087.png&lt;/a&gt;","torrent":{"xt":"urn:btih:871c62468229847967fcd222ad7208ae8957d2a6","amp;dn":"The.Host.2013.CAM.Rip.XViD-FANTA","amp;tr":["udp%3A%2F%2Ftracker.openbittorrent.com%3A80","udp%3A%2F%2Fopen.demonii.com%3A1337","udp%3A%2F%2Ftracker.coppersurfer.tk%3A6969","udp%3A%2F%2Fexodus.desync.com%3A6969"],"infoHash":"871c62468229847967fcd222ad7208ae8957d2a6","infoHashBuffer":{"type":"Buffer","data":[135,28,98,70,130,41,132,121,103,252,210,34,173,114,8,174,137,87,210,166]},"announce":[],"urlList":[]}}